<?xml version="1.0"?>
<svg version="1.1" xmlns="http://www.w3.org/2000/svg" width="400px" height="200px" style="border: dashed 2px #aaa"><path fill="#c7d13d" d="M57.152,140.936l1.904-0.408q1.496,0,2.856,1.224t1.36,1.904t-8.432,13.124t-8.432,17.34q0,0.408,0.136,0.816q0.68,3.128,2.992,3.128q7.072,0,25.84-23.392q0.408-0.544,0.952-0.544t0.544,1.02t-1.224,2.652q-17.408,23.256-26.52,23.256q-1.224,0-2.312-0.408q-5.984-2.312-5.984-8.976q0-2.312,0.544-4.624l-8.432,8.16q-8.024,7.072-11.628,7.072t-6.868-2.312q-3.672-2.72-3.672-7.208q0-9.928,13.872-23.732t25.432-13.804q4.488,0,5.984,3.128q0.408,1.088,0.68,1.836t0.408,0.748z M16.488,174.392q0,4.896,3.4,4.896q7.888,0,21.488-17.272l14.416-19.856q-1.088-1.904-3.536-1.904q-8.296,0-22.032,12.852t-13.736,21.284z M109.53512,152.768q0,4.76-9.112,15.912q-10.744,13.192-18.36,13.192l-2.176,0q-3.536,0-5.576-3.672q-1.632-2.584-1.632-5.712q0-8.16,11.9-22.916t19.244-14.756q6.936,0,6.936,7.344q0,1.904-0.68,4.896q0.136,0.408,2.584,0.408t7.48-2.584q-0.136,2.312-10.744,6.664q0.136,0.544,0.136,1.224z M100.69512,145.696q-4.624,0-13.124,10.88t-8.5,16.048t3.264,5.168q5.848,0,14.824-10.608t8.976-15.232q-2.176-1.224-5.44-6.256z M162.87024,140.392q15.232-24.752,21.216-24.752q0.952,0,2.652,0.612t1.7,1.836q0,0.68-0.68,1.768q-10.88,13.328-16.184,19.992q-16.048,20.264-17.68,29.104q-0.408,1.904-0.408,3.808q0,6.12,5.032,6.12q10.064,0,26.248-18.632q1.36-1.36,2.312-1.564t0.952,0.476t-0.816,1.632q-15.776,18.904-28.016,21.08q-0.68,0.136-1.904,0.136q-4.216,0-6.324-2.924t-2.108-6.324q0-3.808,1.496-8.432l-11.016,11.016q-7.48,6.936-11.764,6.936t-7.14-2.312q-3.4-2.584-3.4-7.208q0-9.928,13.872-23.732t25.432-13.804q3.808,0,5.304,2.04q0.544,0.68,1.224,3.128z M122.75024,174.392q0,4.896,3.4,4.896q5.848,0,19.448-16.048q2.448-2.856,16.32-21.352q-0.952-1.632-3.264-1.632q-8.432,0-22.168,12.852t-13.736,21.284z M232.93336,140.936l1.904-0.408q1.496,0,2.856,1.224t1.36,1.904t-8.432,13.124t-8.432,17.34q0,0.408,0.136,0.816q0.68,3.128,2.992,3.128q7.072,0,25.84-23.392q0.408-0.544,0.952-0.544t0.544,1.02t-1.224,2.652q-17.408,23.256-26.52,23.256q-1.224,0-2.312-0.408q-5.984-2.312-5.984-8.976q0-2.312,0.544-4.624l-8.432,8.16q-8.024,7.072-11.628,7.072t-6.868-2.312q-3.672-2.72-3.672-7.208q0-9.928,13.872-23.732t25.432-13.804q4.488,0,5.984,3.128q0.408,1.088,0.68,1.836t0.408,0.748z M192.26936,174.392q0,4.896,3.4,4.896q7.888,0,21.488-17.272l14.416-19.856q-1.088-1.904-3.536-1.904q-8.296,0-22.032,12.852t-13.736,21.284z M283.20848,127.404q1.836,1.292,1.836,3.06t-1.7,3.06t-3.74,1.292t-3.74-1.496t-1.7-3.4q0-3.808,5.168-3.808q2.04,0,3.876,1.292z M254.71648,183.096q-6.936,0-6.936-8.976q0-7.344,8.024-20.332t12.92-13.124q1.36,0,3.06,1.088t1.7,2.176q-0.68,0.952-1.632,2.108t-2.04,2.516t-2.992,3.876t-3.672,4.828q-10.2,13.192-10.2,18.156t3.4,4.964q2.856,0,7.752-3.128q11.424-7.072,18.088-15.504q2.448-3.128,3.332-3.128t0.884,1.088t-3.128,4.352t-4.964,5.168t-2.516,2.516t-2.516,2.312t-2.788,2.38t-2.72,2.04t-3.128,1.972t-3.128,1.428q-2.856,1.224-6.8,1.224z M323.4196,128.152q4.08,0,6.936,2.72t2.856,7.616q0,10.744-17.816,26.928q-15.096,13.6-24.344,16.592q-1.496,0-3.944-1.632t-2.448-2.992q0-2.992,6.528-20.264t8.976-19.312q0.544-0.544,1.768-0.544t2.584,1.292t1.496,3.06q0,0.136-6.732,15.776t-6.324,18.632q5.848-1.768,20.876-14.28t15.028-22.44q0-5.984-5.984-8.704q-0.952-0.408-0.952-1.224q0-1.224,1.496-1.224z M355.40272,138.624q3.672,0,3.672,2.856q0,0.816-0.408,1.632q-12.24,17-14.688,25.704q31.688-31.688,38.488-31.688q0.68-0.136,1.224-0.136q3.808,0,3.808,3.4q0,0.68-0.272,1.36t-5.44,7.344q-5.984,7.072-10.132,13.6t-4.148,10.88t1.904,4.352q5.984,0,20.808-16.456q0.272-0.272,0.952-1.224q2.04-2.448,2.448-2.448t0.408,1.36t-1.904,3.536q-16.864,19.176-23.936,19.176q-6.664,0-6.664-7.344t5.44-16.864l8.704-14.144q-9.248,6.8-16.456,14.892t-13.124,15.708t-6.868,7.616q-2.04,0-3.196-1.7t-1.156-4.216t1.768-6.732t4.488-10.2l-8.16,8.568q-2.992,2.992-3.74,2.992t-0.748-0.884t1.088-1.972q5.032-5.032,8.704-9.656q3.536-4.624,14.552-17.68q1.224-1.632,2.584-1.632z"/><path fill="#" d=""/></svg>
